<svg xmlns="http://www.w3.org/2000/svg" xml:space="preserve" width="1000" height="200" style="shape-rendering:geometricPrecision;text-rendering:geometricPrecision;image-rendering:optimizeQuality;fill-rule:evenodd;clip-rule:evenodd"><path d="M25.24 144.29h32.73c11.69 0 17.53-5.6 17.53-16.78v-14.46c0-11.19-6.15-16.78-18.47-16.78H25.24c-1.71 0-2.57.78-2.57 2.33v43.36c0 1.55.86 2.33 2.57 2.33zm0-66.67h30.39c11.85 0 17.77-5.67 17.77-17.01V49.88c0-11.19-5.77-16.78-17.3-16.78H25.24c-1.71 0-2.57.78-2.57 2.33v39.86c0 1.55.86 2.33 2.57 2.33zM0 159.67V17.72c0-2.65 1.32-3.97 3.97-3.97h55.4c11.54 0 20.5 3.11 26.88 9.33 6.39 6.21 9.59 14.99 9.59 26.34v11.42c0 13.52-6.39 22.22-19.17 26.11 6.08.77 11.1 3.42 15.08 7.92 3.97 4.51 5.96 10.57 5.96 18.18v14.92c0 11.35-3.2 20.13-9.59 26.34-6.39 6.22-15.27 9.33-26.64 9.33H3.97c-2.65 0-3.97-1.32-3.97-3.97zM127.86 24.94V3.73c0-2.49 1.25-3.73 3.74-3.73h15.2c2.49 0 3.74 1.24 3.74 3.73v21.21c0 2.64-1.25 3.96-3.74 3.96h-15.2c-2.49 0-3.74-1.32-3.74-3.96zm0 134.73V48.72c0-2.64 1.25-3.96 3.74-3.96h14.96c2.65 0 3.98 1.32 3.98 3.96v110.95c0 1.56-.28 2.61-.82 3.15-.55.54-1.52.82-2.92.82h-14.96c-2.65 0-3.98-1.32-3.98-3.97zm72 3.97h-14.73c-2.65 0-3.97-1.32-3.97-3.97V48.72c0-2.64 1.32-3.96 3.97-3.96h14.73c2.65 0 3.97 1.32 3.97 3.96v8.39h.94c3.74-8.24 11.61-12.35 23.61-12.35h10.28c11.38 0 20.1 3.1 26.18 9.32 6.08 6.21 9.12 15.15 9.12 26.81v78.78c0 2.65-1.4 3.97-4.21 3.97h-14.72c-2.65 0-3.98-1.32-3.98-3.97V81.82c0-11.5-5.69-17.25-17.06-17.25H223c-12.78 0-19.17 6.6-19.17 19.81v75.29c0 2.65-1.32 3.97-3.97 3.97zm145.63-5.83h-10.52c-11.22 0-19.83-3.15-25.83-9.44-6-6.3-9-15.19-9-26.69V80.89c0-11.5 3.19-20.4 9.58-26.69 6.39-6.3 15.28-9.44 26.65-9.44h52.36c2.81 0 4.21 1.32 4.21 3.96V164.1c0 11.35-3.23 20.17-9.7 26.46-6.47 6.29-15.39 9.44-26.77 9.44h-43.94c-2.65 0-3.98-1.24-3.98-3.73v-12.12c0-2.64 1.33-3.96 3.98-3.96h40.44c11.37 0 17.06-5.75 17.06-17.25v-17.72h-.93c-3.9 8.39-11.77 12.59-23.61 12.59zm24.54-39.63V66.9c0-1.55-.85-2.33-2.57-2.33h-27.82c-11.06 0-16.59 5.75-16.59 17.25v38.69c0 11.5 5.53 17.25 16.59 17.25h11.22c12.78 0 19.17-6.53 19.17-19.58zm106.59 45.46h-20.57c-11.53 0-20.45-3.19-26.76-9.56-6.31-6.37-9.47-15.23-9.47-26.57V80.89c0-11.5 3.16-20.4 9.47-26.69 6.31-6.3 15.23-9.44 26.76-9.44h20.57c11.38 0 20.3 3.14 26.77 9.44 6.47 6.29 9.7 15.19 9.7 26.69v46.62c0 11.34-3.23 20.2-9.7 26.57-6.47 6.37-15.39 9.56-26.77 9.56zm-17.29-19.82h14.25c11.23 0 16.84-5.67 16.84-17.01V81.58c0-11.34-5.61-17.01-16.84-17.01h-14.25c-5.93 0-10.21 1.36-12.86 4.08-2.65 2.72-3.97 7.03-3.97 12.93v45.23c0 5.9 1.32 10.21 3.97 12.93 2.65 2.72 6.93 4.08 12.86 4.08zm163.86.47h32.72c11.69 0 17.54-5.6 17.54-16.78v-14.46c0-11.19-6.16-16.78-18.47-16.78h-31.79c-1.72 0-2.57.78-2.57 2.33v43.36c0 1.55.85 2.33 2.57 2.33zm0-66.67h30.39c11.84 0 17.76-5.67 17.76-17.01V49.88c0-11.19-5.76-16.78-17.3-16.78h-30.85c-1.72 0-2.57.78-2.57 2.33v39.86c0 1.55.85 2.33 2.57 2.33zm-25.25 82.05V17.72c0-2.65 1.33-3.97 3.98-3.97h55.4c11.53 0 20.49 3.11 26.88 9.33 6.39 6.21 9.58 14.99 9.58 26.34v11.42c0 13.52-6.39 22.22-19.17 26.11 6.08.77 11.11 3.42 15.08 7.92 3.97 4.51 5.96 10.57 5.96 18.18v14.92c0 11.35-3.19 20.13-9.58 26.34-6.39 6.22-15.27 9.33-26.65 9.33h-57.5c-2.65 0-3.98-1.32-3.98-3.97zm169.71 3.97h-9.12c-11.53 0-20.45-3.19-26.76-9.56-6.32-6.37-9.47-15.23-9.47-26.57V80.89c0-11.5 3.15-20.4 9.47-26.69 6.31-6.3 15.23-9.44 26.76-9.44h52.36c2.81 0 4.21 1.32 4.21 3.96v110.95c0 2.65-1.4 3.97-4.21 3.97h-14.72c-2.65 0-3.98-1.32-3.98-3.97v-8.39h-.93c-3.74 8.24-11.61 12.36-23.61 12.36zm24.54-39.63V66.9c0-1.55-.85-2.33-2.57-2.33H761.8c-11.22 0-16.83 5.75-16.83 17.25v44.75c0 11.5 5.61 17.25 16.83 17.25h11.23c12.77 0 19.16-6.6 19.16-19.81zm70.83 39.63h-14.73c-2.65 0-3.97-1.32-3.97-3.97V48.72c0-2.64 1.32-3.96 3.97-3.96h14.73c2.65 0 3.97 1.32 3.97 3.96v8.86h.94c1.56-3.89 4.56-7 9-9.33s9.39-3.49 14.84-3.49h8.65c2.65 0 3.97 1.32 3.97 3.96v12.12c0 2.95-1.32 4.2-3.97 3.73H886.4c-12.94 0-19.41 7.07-19.41 21.21v73.89c0 2.65-1.32 3.97-3.97 3.97zm102.15 0h-43.01c-2.65 0-3.97-1.32-3.97-3.97v-11.42c0-2.48 1.32-3.73 3.97-3.73h39.27c10.13 0 15.19-3.5 15.19-10.49v-2.8c0-6.21-3.66-10.95-10.98-14.21l-25.48-12.13c-7.95-3.72-13.71-7.84-17.3-12.35-3.58-4.51-5.38-10.41-5.38-17.71 0-20.05 11.15-30.07 33.43-30.07h38.8c2.5 0 3.74 1.32 3.74 3.96v11.42c0 2.64-1.24 3.96-3.74 3.96h-34.12c-4.68 0-8.26.82-10.76 2.45-2.49 1.63-3.74 3.77-3.74 6.41v2.56c0 4.98 3.98 9.33 11.93 13.06l25.71 13.05c8.1 3.58 13.67 7.81 16.71 12.71 3.04 4.89 4.56 11.22 4.56 18.99 0 20.21-11.61 30.31-34.83 30.31z" style="fill:#ccc;fill-rule:nonzero"/><path d="M127.86 159.67V86.2h22.68v73.47c0 1.55-.28 2.61-.82 3.15-.55.54-1.52.82-2.92.82h-14.96c-2.65 0-3.98-1.32-3.98-3.97z" style="fill:#449;fill-rule:nonzero;stroke:#449;stroke-width:2"/><path d="M204.189 111.33v48.34c0 2.65-1.4 3.97-4.21 3.97h-14.72c-2.65 0-3.98-1.32-3.98-3.97v-47.974l22.91-.366z" style="fill:#949;fill-rule:nonzero;stroke:#949;stroke-width:2"/><path d="M356.47 200h-43.94c-2.65 0-3.98-1.24-3.98-3.73v-12.12c0-2.64 1.33-3.96 3.98-3.96h40.44l3.5 19.81z" style="fill:#944;fill-rule:nonzero;stroke:#944;stroke-width:2"/><path d="M792.19 159.67v-41.339l22.68-.001v41.34c0 1.55-.28 2.61-.82 3.15-.55.54-1.52.82-2.92.82h-14.96c-2.65 0-3.98-1.32-3.98-3.97z" style="fill:#994;fill-rule:nonzero;stroke:#994;stroke-width:2"/><path d="M844.32 159.67v-56.346l22.67-.001v56.347c0 1.55-.27 2.61-.81 3.15-.55.54-1.52.82-2.93.82h-14.96c-2.64 0-3.97-1.32-3.97-3.97z" style="fill:#494;fill-rule:nonzero;stroke:#494;stroke-width:2"/><path d="M965.17 163.64h-43.01c-2.65 0-3.97-1.32-3.97-3.97v-11.42c0-2.48 1.32-3.73 3.97-3.73h39.27l3.74 19.12z" style="fill:#499;fill-rule:nonzero;stroke:#499;stroke-width:2"/></svg>